<?xml version="1.0" standalone="no"?>
<!DOCTYPE svg PUBLIC "-//W3C//DTD SVG 20010904//EN"
 "http://www.w3.org/TR/2001/REC-SVG-20010904/DTD/svg10.dtd">
<svg version="1.0" xmlns="http://www.w3.org/2000/svg"
 width="200.000000pt" height="200.000000pt" viewBox="0 0 200.000000 200.000000"
 preserveAspectRatio="xMidYMid meet">

<g transform="translate(0.000000,200.000000) scale(0.100000,-0.100000)"
fill="#000000" stroke="none">
<path d="M0 995 l0 -995 995 0 995 0 0 995 0 995 -995 0 -995 0 0 -995z m990
600 c38 -25 70 -52 70 -61 0 -8 -13 -35 -30 -59 -26 -38 -28 -44 -12 -47 10
-3 28 8 43 26 l25 29 53 -28 c66 -36 125 -101 159 -173 23 -49 27 -70 27 -147
0 -64 -5 -103 -18 -136 -17 -42 -23 -47 -71 -63 -61 -19 -132 -77 -161 -130
l-20 -36 -157 0 -158 0 0 70 0 70 73 0 c61 0 74 -3 85 -20 10 -17 23 -20 75
-20 142 1 245 101 255 248 5 77 -16 138 -66 194 -52 57 -67 63 -68 25 -2 -37
-43 -77 -80 -77 -15 0 -38 12 -55 30 l-30 29 -44 -69 c-44 -68 -67 -84 -91
-60 -7 7 -17 0 -32 -20 -27 -35 -40 -37 -70 -10 -21 20 -21 22 -6 51 14 28 14
32 0 48 -9 10 -16 23 -16 29 0 9 184 304 212 340 17 20 34 15 108 -33z m25
-620 c0 -19 -8 -20 -194 -23 -114 -1 -199 2 -204 7 -5 5 -7 17 -4 26 6 13 31
15 204 13 190 -3 198 -4 198 -23z m423 -81 c154 -77 189 -281 69 -404 -161
-165 -437 -54 -437 176 0 34 7 78 15 97 56 135 222 196 353 131z m-398 -234
l0 -70 -216 0 -216 0 6 32 c7 35 48 85 81 98 11 5 93 9 183 9 l162 1 0 -70z"/>
<path d="M987 1357 c-8 -21 8 -39 29 -35 27 5 25 42 -2 46 -12 2 -24 -3 -27
-11z"/>
<path d="M1285 838 c-8 -19 -18 -23 -52 -23 -51 0 -58 -7 -58 -58 0 -34 -4
-44 -23 -52 -24 -11 -37 -38 -27 -56 4 -5 18 -15 32 -20 23 -9 25 -13 19 -53
-8 -53 12 -78 45 -57 27 16 58 5 65 -25 8 -32 59 -35 69 -4 9 29 40 43 66 29
18 -9 25 -7 42 9 17 17 18 24 8 36 -17 21 -4 55 25 66 32 12 35 70 4 70 -26 0
-44 34 -30 59 13 25 13 27 -5 44 -10 11 -27 14 -55 10 -36 -5 -40 -3 -50 21
-13 35 -60 37 -75 4z m85 -128 c58 -58 -20 -142 -88 -94 -27 18 -30 69 -5 96
21 24 68 23 93 -2z"/>
</g>
</svg>
